<svg width="4" height="9" viewBox="0 0 4 9" fill="none" xmlns="http://www.w3.org/2000/svg">
<path d="M3.49897 4.49962C3.49895 4.37396 3.46295 4.24954 3.39302 4.13345C3.32309 4.01736 3.2206 3.91189 3.09139 3.82305C2.96219 3.73421 2.8088 3.66374 2.64 3.61567C2.47119 3.5676 2.29027 3.54287 2.10756 3.54289C1.92485 3.54291 1.74393 3.56768 1.57514 3.61579C1.40634 3.66389 1.25297 3.73439 1.12379 3.82326C0.994605 3.91213 0.892133 4.01763 0.822226 4.13373C0.752319 4.24983 0.716346 4.37426 0.71636 4.49992C0.716471 4.7537 0.863161 4.99705 1.12416 5.17643C1.38516 5.35581 1.73909 5.45653 2.10808 5.45643C2.47708 5.45633 2.83092 5.35543 3.09176 5.17591C3.3526 4.99639 3.49908 4.75297 3.49897 4.49919L3.49897 4.49962ZM3.49864 1.45639C3.49863 1.33073 3.46262 1.20631 3.39269 1.09022C3.32276 0.974134 3.22027 0.868659 3.09106 0.779819C2.96186 0.690979 2.80847 0.620512 2.63967 0.572443C2.47086 0.524373 2.28994 0.499643 2.10723 0.499662C1.92452 0.499682 1.7436 0.524452 1.57481 0.572558C1.40601 0.620664 1.25265 0.691164 1.12346 0.780032C0.994276 0.8689 0.891804 0.974397 0.821897 1.0905C0.75199 1.2066 0.716016 1.33103 0.71603 1.45669C0.716141 1.71047 0.862831 1.95382 1.12383 2.1332C1.38483 2.31258 1.73876 2.4133 2.10775 2.4132C2.47675 2.4131 2.83059 2.3122 3.09143 2.13268C3.35227 1.95316 3.49875 1.70974 3.49864 1.45596L3.49864 1.45639ZM3.4993 7.54285C3.49928 7.41719 3.46328 7.29277 3.39335 7.17668C3.32342 7.06059 3.22092 6.95512 3.09172 6.86628C2.96252 6.77744 2.80913 6.70697 2.64033 6.6589C2.47152 6.61083 2.2906 6.5861 2.10789 6.58612C1.92518 6.58614 1.74426 6.61091 1.57547 6.65902C1.40667 6.70712 1.2533 6.77762 1.12412 6.86649C0.994935 6.95536 0.892463 7.06086 0.822556 7.17696C0.752649 7.29306 0.716675 7.41749 0.716689 7.54315C0.7168 7.79693 0.86349 8.04028 1.12449 8.21966C1.38549 8.39904 1.73942 8.49976 2.10841 8.49966C2.47741 8.49956 2.83125 8.39866 3.09209 8.21914C3.35293 8.03962 3.49941 7.7962 3.4993 7.54242L3.4993 7.54285Z" fill="#7D7D7D" fill-opacity="0.67"/>
</svg>
