<?xml version="1.0" standalone="no"?>
<!DOCTYPE svg PUBLIC "-//W3C//DTD SVG 20010904//EN"
 "http://www.w3.org/TR/2001/REC-SVG-20010904/DTD/svg10.dtd">
<svg version="1.0" xmlns="http://www.w3.org/2000/svg"
 width="48.000000pt" height="48.000000pt" viewBox="0 0 48.000000 48.000000"
 preserveAspectRatio="xMidYMid meet">

<g transform="translate(0.000000,48.000000) scale(0.100000,-0.100000)"
fill="#000000" stroke="none">
<path d="M146 370 c-43 -42 -81 -70 -94 -70 -28 0 -34 -13 -26 -55 4 -22 12
-35 21 -35 12 0 14 7 10 30 l-6 30 190 0 c177 0 190 -1 185 -17 -3 -10 -8 -35
-12 -55 -5 -31 -3 -38 9 -38 17 0 27 36 30 101 2 29 -2 35 -23 38 -14 1 -57
33 -97 72 -43 40 -82 69 -94 69 -13 0 -50 -28 -93 -70z m154 -15 l54 -55 -114
0 -114 0 54 55 c30 30 57 55 60 55 3 0 30 -25 60 -55z"/>
<path d="M110 216 c0 -51 14 -106 28 -106 12 0 13 9 8 46 -3 26 -6 53 -6 60 0
8 -7 14 -15 14 -8 0 -15 -6 -15 -14z"/>
<path d="M190 170 c0 -47 3 -60 15 -60 12 0 15 13 15 60 0 47 -3 60 -15 60
-12 0 -15 -13 -15 -60z"/>
<path d="M260 170 c0 -47 3 -60 15 -60 12 0 15 13 15 60 0 47 -3 60 -15 60
-12 0 -15 -13 -15 -60z"/>
<path d="M340 216 c0 -7 -3 -34 -6 -60 -5 -37 -4 -46 8 -46 11 0 17 15 22 46
9 66 8 74 -9 74 -8 0 -15 -6 -15 -14z"/>
<path d="M40 168 c1 -38 22 -95 41 -110 18 -15 43 -18 161 -18 134 0 140 1
163 25 27 26 34 65 12 65 -7 0 -18 -14 -24 -30 l-11 -30 -141 0 c-156 0 -152
-2 -165 73 -4 23 -13 37 -21 37 -8 0 -15 -6 -15 -12z"/>
</g>
</svg>
